<svg
  xmlns="http://www.w3.org/2000/svg"
  viewBox="0 0 64 64"
  role="img"
  aria-labelledby="title description"
>
  <title id="title">FinEd Saathi</title>
  <desc id="description">A speech bubble with voice bars and a rising value line.</desc>
  <path
    fill="#15233B"
    d="M12 5h40a7 7 0 0 1 7 7v31a7 7 0 0 1-7 7H38L25 60V50H12a7 7 0 0 1-7-7V12a7 7 0 0 1 7-7Z"
  />
  <g data-mark-part="voice-bars" fill="#FFFCF5">
    <rect width="5" height="14" x="14" y="24" rx="2.5" />
    <rect width="5" height="22" x="21" y="20" rx="2.5" />
    <rect width="5" height="12" x="28" y="25" rx="2.5" />
  </g>
  <g data-mark-part="finance-card">
    <rect width="18" height="25" x="36" y="17" fill="#FFFCF5" rx="4" />
    <path
      fill="none"
      stroke="#1F6B4F"
      stroke-linecap="round"
      stroke-linejoin="round"
      stroke-width="4"
      d="m40 35 4-5 3 2 4-7"
    />
  </g>
</svg>
